<svg xmlns="http://www.w3.org/2000/svg" viewBox="0 0 34.57 34.57"><defs><style>.cls-1,.cls-2{fill:none;}.cls-1{stroke:#fff;stroke-linecap:square;stroke-miterlimit:10;}</style></defs><title>Gastronomia_2</title><g id="Layer_2" data-name="Layer 2"><g id="Layer_1-2" data-name="Layer 1"><path class="cls-1" d="M21.2,18.88l-.38,7.86c-.05.7.68,1.28,1.6,1.28h0c.91,0,1.64-.58,1.59-1.28l-.36-7.86V7.12c0-.5-.78-.76-1.26-.42h0A5.29,5.29,0,0,0,20.3,9.34h0a9.42,9.42,0,0,0-.51,3v5.33a1.37,1.37,0,0,0,1.41,1.17Z"/><line class="cls-1" x1="21.2" y1="18.88" x2="23.65" y2="18.88"/><path class="cls-1" d="M15.36,6.55v6.33a1.27,1.27,0,0,1-.47.95l-.33.29A1.44,1.44,0,0,0,14,15.28l.53,11.46c0,.7-.67,1.28-1.59,1.28h0c-.92,0-1.65-.58-1.59-1.28l.53-11.46a1.44,1.44,0,0,0-.54-1.16L11,13.83a1.27,1.27,0,0,1-.47-.95V6.55"/><line class="cls-1" x1="12.96" y1="6.55" x2="12.96" y2="11.92"/><line class="cls-1" x1="10.56" y1="11.92" x2="15.36" y2="11.92"/><rect class="cls-2" width="34.57" height="34.57"/></g></g></svg>