<svg xmlns="http://www.w3.org/2000/svg" viewBox="0 0 34.57 34.57"><defs><style>.cls-1,.cls-2,.cls-3{fill:none;}.cls-1,.cls-2{stroke:#fff;stroke-miterlimit:10;}.cls-2{stroke-linecap:square;}</style></defs><title>Hospedaje_2</title><g id="Layer_2" data-name="Layer 2"><g id="Layer_1-2" data-name="Layer 1"><path class="cls-1" d="M20.23,8.4A2.65,2.65,0,0,1,23.05,11h0a.89.89,0,0,0,.87.8h0a.93.93,0,0,0,.91-.9h0a4.35,4.35,0,0,0-4.61-4.34h0a4.57,4.57,0,0,0-3.8,2"/><path class="cls-2" d="M15.65,11.13V27a1,1,0,0,0,1,1h7.11a1,1,0,0,0,1-1V15.11a1,1,0,0,0-1-1h-3.5a2.89,2.89,0,0,1-2.9-2.9"/><path class="cls-2" d="M20.22,11.26,9.9,10.58a.18.18,0,0,1-.17-.18V9.27a.18.18,0,0,1,.17-.18l10.32-.68a1.43,1.43,0,0,1,1.53,1.43h0A1.43,1.43,0,0,1,20.22,11.26Z"/><line class="cls-2" x1="17.58" y1="17.28" x2="22.87" y2="17.28"/><line class="cls-2" x1="17.58" y1="19.61" x2="20.63" y2="19.61"/><line class="cls-2" x1="17.58" y1="21.94" x2="22.05" y2="21.94"/><line class="cls-2" x1="17.58" y1="24.26" x2="22.87" y2="24.26"/><rect class="cls-3" width="34.57" height="34.57"/></g></g></svg>