<svg xmlns="http://www.w3.org/2000/svg" viewBox="0 0 34.57 34.57"><defs><style>.cls-1,.cls-2,.cls-3{fill:none;}.cls-1,.cls-2{stroke:#fff;stroke-miterlimit:10;}.cls-1{stroke-linecap:square;}</style></defs><title>Turismo_2</title><g id="Layer_2" data-name="Layer 2"><g id="Layer_1-2" data-name="Layer 1"><path class="cls-1" d="M12.38,20.8c-2.36-4.26-2.89-5-2.89-7.51s2-6.77,7.79-6.77V20.8Z"/><path class="cls-2" d="M17.28,20.8H15.13c-2.09-4.37-2.29-5.86-2.29-7.51a7.45,7.45,0,0,1,4.44-6.77"/><polyline class="cls-1" points="12.38 20.8 15.06 25.8 16.8 25.8 15.13 20.8"/><path class="cls-1" d="M22.19,20.8c2.36-4.26,2.89-5,2.89-7.51s-2-6.77-7.8-6.77V20.8Z"/><path class="cls-2" d="M17.28,20.8h2.16c2.09-4.37,2.29-5.86,2.29-7.51a7.47,7.47,0,0,0-4.45-6.77"/><polyline class="cls-1" points="22.19 20.8 19.51 25.8 17.77 25.8 19.44 20.8"/><path class="cls-1" d="M15.1,25.8h4.4a0,0,0,0,1,0,0v1.72a.53.53,0,0,1-.53.53H15.63a.53.53,0,0,1-.53-.53V25.8A0,0,0,0,1,15.1,25.8Z"/><rect class="cls-3" width="34.57" height="34.57"/></g></g></svg>