<svg xmlns="http://www.w3.org/2000/svg" viewBox="0 0 21.92 21.92"><defs><style>.cls-1,.cls-2{fill:none;}.cls-1{stroke:#804cb4;stroke-miterlimit:10;stroke-width:1.09px;}</style></defs><title>2_1</title><g id="Layer_2" data-name="Layer 2"><g id="Layer_1-2" data-name="Layer 1"><rect class="cls-1" x="5.48" y="9.44" width="3.37" height="6.47" rx="0.74"/><path class="cls-1" d="M15.25,9.44h-2.5a.23.23,0,0,1-.23-.28L13,6.8A.66.66,0,0,0,12.33,6H12a.69.69,0,0,0-.52.24l-2,2.52a2.41,2.41,0,0,0-.54,1.52v4.4a1.22,1.22,0,0,0,1.22,1.22h4.57a1.22,1.22,0,0,0,1.21-1.05l.58-4.07A1.19,1.19,0,0,0,15.25,9.44Z"/><rect class="cls-2" width="21.92" height="21.92"/></g></g></svg>